<svg width="54" height="24" viewBox="0 0 54 24" fill="none" xmlns="http://www.w3.org/2000/svg">
<path d="M19 3H5C3.9 3 3 3.9 3 5V19C3 20.1 3.9 21 5 21H19C20.1 21 21 20.1 21 19V5C21 3.9 20.1 3 19 3ZM14 17H7V15H14V17ZM17 13H7V11H17V13ZM17 9H7V7H17V9Z" fill="black"/>
<path d="M28.4 15.728C28.3627 16.1813 28.3173 16.6453 28.264 17.12C28.216 17.5893 28.1493 18.032 28.064 18.448C28.0427 18.5493 28.0133 18.6213 27.976 18.664C27.9387 18.7067 27.8853 18.736 27.816 18.752C27.7573 18.7627 27.6747 18.744 27.568 18.696C27.4667 18.648 27.3813 18.5787 27.312 18.488C27.2213 18.3653 27.1227 18.232 27.016 18.088C26.9147 17.9387 26.8027 17.7893 26.68 17.64C26.5627 17.4853 26.4373 17.3333 26.304 17.184C26.176 17.0347 26.04 16.896 25.896 16.768C25.88 17.12 25.8667 17.4693 25.856 17.816C25.8453 18.1573 25.8453 18.5013 25.856 18.848C25.856 18.896 25.8133 18.92 25.728 18.92C25.6267 18.92 25.544 18.8693 25.48 18.768C25.416 18.6613 25.3787 18.5547 25.368 18.448C25.352 18.3413 25.344 18.1893 25.344 17.992C25.344 17.7893 25.3467 17.5787 25.352 17.36C25.3627 17.1413 25.3733 16.9307 25.384 16.728C25.3947 16.5253 25.4053 16.3653 25.416 16.248C25.4267 16.12 25.456 16.0267 25.504 15.968C25.5573 15.9093 25.608 15.8827 25.656 15.888C25.7627 15.8987 25.832 15.9307 25.864 15.984C25.9013 16.032 25.9227 16.0933 25.928 16.168C26.12 16.3067 26.296 16.456 26.456 16.616C26.6213 16.776 26.7707 16.9387 26.904 17.104C27.0427 17.2693 27.168 17.4347 27.28 17.6C27.3973 17.76 27.5067 17.9067 27.608 18.04C27.672 17.72 27.7227 17.3627 27.76 16.968C27.8027 16.5733 27.8453 16.16 27.888 15.728C27.8827 15.6747 27.9147 15.624 27.984 15.576C28.0533 15.5227 28.1173 15.4987 28.176 15.504C28.3253 15.5147 28.4 15.5893 28.4 15.728ZM34.0555 16.208C34.2155 16.2667 34.3488 16.3547 34.4555 16.472C34.5675 16.5893 34.6528 16.7227 34.7115 16.872C34.7702 17.016 34.8022 17.1653 34.8075 17.32C34.8182 17.4747 34.8022 17.6187 34.7595 17.752C34.7008 17.9013 34.6262 18.048 34.5355 18.192C34.4448 18.336 34.3408 18.464 34.2235 18.576C34.1062 18.688 33.9728 18.7787 33.8235 18.848C33.6742 18.9173 33.5088 18.952 33.3275 18.952C33.1088 18.952 32.9248 18.9013 32.7755 18.8C32.6262 18.6987 32.5088 18.568 32.4235 18.408C32.3382 18.248 32.2822 18.0667 32.2555 17.864C32.2342 17.6613 32.2395 17.4587 32.2715 17.256C32.2928 17.1067 32.3275 16.9627 32.3755 16.824C32.4288 16.68 32.4955 16.5547 32.5755 16.448C32.6555 16.336 32.7462 16.2453 32.8475 16.176C32.9542 16.1067 33.0742 16.072 33.2075 16.072C33.2822 16.072 33.3755 16.088 33.4875 16.12C33.5995 16.1467 33.7035 16.1867 33.7995 16.24C33.8688 16.176 33.9542 16.1653 34.0555 16.208ZM33.7515 16.792C33.6928 16.7547 33.6235 16.7067 33.5435 16.648C33.4688 16.584 33.4022 16.552 33.3435 16.552C33.2795 16.552 33.2155 16.5813 33.1515 16.64C33.0928 16.6987 33.0395 16.768 32.9915 16.848C32.9488 16.9227 32.9115 17 32.8795 17.08C32.8475 17.16 32.8262 17.224 32.8155 17.272C32.7995 17.352 32.7888 17.448 32.7835 17.56C32.7782 17.672 32.7862 17.784 32.8075 17.896C32.8288 18.0027 32.8688 18.1013 32.9275 18.192C32.9915 18.2773 33.0848 18.3387 33.2075 18.376C33.2822 18.3973 33.3702 18.3973 33.4715 18.376C33.5728 18.3493 33.6715 18.304 33.7675 18.24C33.8688 18.176 33.9622 18.0907 34.0475 17.984C34.1382 17.8773 34.2075 17.7547 34.2555 17.616C34.3088 17.4613 34.3088 17.3013 34.2555 17.136C34.2075 16.9653 34.1062 16.8427 33.9515 16.768C33.9142 16.7947 33.8768 16.808 33.8395 16.808C33.8022 16.808 33.7728 16.8027 33.7515 16.792ZM40.4659 16.856C40.5672 16.8507 40.6685 16.8747 40.7699 16.928C40.8712 16.9813 40.9219 17.064 40.9219 17.176C40.9112 17.2667 40.8605 17.3253 40.7699 17.352C40.6845 17.3733 40.6152 17.384 40.5619 17.384C40.4552 17.384 40.3405 17.3867 40.2179 17.392C40.0952 17.3973 39.9699 17.4053 39.8419 17.416C39.8312 17.592 39.8205 17.7573 39.8099 17.912C39.8045 18.0667 39.7992 18.2053 39.7939 18.328C39.7885 18.4453 39.7859 18.5413 39.7859 18.616C39.7859 18.6907 39.7885 18.7307 39.7939 18.736C39.9112 18.7147 40.0365 18.68 40.1699 18.632C40.3085 18.5787 40.4445 18.5227 40.5779 18.464C40.7165 18.4 40.8499 18.336 40.9779 18.272C41.1112 18.2027 41.2365 18.1387 41.3539 18.08C41.4072 18.0533 41.4552 18.0453 41.4979 18.056C41.5459 18.0667 41.5752 18.0907 41.5859 18.128C41.5965 18.1867 41.5885 18.2587 41.5619 18.344C41.5352 18.4293 41.4872 18.5067 41.4179 18.576C41.3379 18.64 41.2312 18.7147 41.0979 18.8C40.9699 18.88 40.8312 18.9573 40.6819 19.032C40.5325 19.1067 40.3805 19.1733 40.2259 19.232C40.0765 19.2853 39.9432 19.3173 39.8259 19.328C39.6499 19.344 39.5165 19.296 39.4259 19.184C39.3352 19.072 39.2845 18.9307 39.2739 18.76C39.2632 18.5893 39.2605 18.392 39.2659 18.168C39.2765 17.944 39.2872 17.7067 39.2979 17.456C39.1965 17.4667 39.0979 17.4773 39.0019 17.488C38.9112 17.4933 38.8232 17.5013 38.7379 17.512C38.6685 17.512 38.5912 17.496 38.5059 17.464C38.4259 17.432 38.3859 17.3707 38.3859 17.28C38.3859 17.248 38.3992 17.2053 38.4259 17.152C38.4525 17.0987 38.5112 17.0587 38.6019 17.032C38.8205 16.9947 39.0632 16.9627 39.3299 16.936C39.3459 16.6853 39.3645 16.4427 39.3859 16.208C39.4072 15.9733 39.4259 15.76 39.4419 15.568C39.4472 15.504 39.4659 15.448 39.4979 15.4C39.5299 15.352 39.5645 15.328 39.6019 15.328C39.6925 15.3227 39.7779 15.3467 39.8579 15.4C39.9432 15.448 39.9859 15.504 39.9859 15.568C39.9645 15.7493 39.9432 15.9547 39.9219 16.184C39.9059 16.4133 39.8899 16.648 39.8739 16.888C39.9805 16.8773 40.0819 16.872 40.1779 16.872C40.2792 16.8667 40.3752 16.8613 40.4659 16.856ZM47.0515 17.12C46.8435 17.2427 46.6195 17.3387 46.3795 17.408C46.1395 17.472 45.8808 17.504 45.6035 17.504C45.6142 17.6907 45.6675 17.84 45.7635 17.952C45.8595 18.0587 45.9795 18.1227 46.1235 18.144C46.2088 18.1547 46.2942 18.152 46.3795 18.136C46.4702 18.12 46.5528 18.096 46.6275 18.064C46.7075 18.0267 46.7795 17.9867 46.8435 17.944C46.9075 17.9013 46.9635 17.8587 47.0115 17.816C47.0595 17.7733 47.1102 17.7467 47.1635 17.736C47.2168 17.72 47.2568 17.7173 47.2835 17.728C47.3582 17.7547 47.3848 17.8347 47.3635 17.968C47.2782 18.1387 47.1555 18.2853 46.9955 18.408C46.8355 18.5253 46.6568 18.6 46.4595 18.632C46.2888 18.664 46.1128 18.656 45.9315 18.608C45.7502 18.56 45.5875 18.4667 45.4435 18.328C45.3208 18.2053 45.2275 18.0613 45.1635 17.896C45.0995 17.7307 45.0595 17.56 45.0435 17.384C45.0275 17.2187 45.0408 17.0613 45.0835 16.912C45.1315 16.7627 45.2035 16.632 45.2995 16.52C45.3955 16.4027 45.5155 16.3067 45.6595 16.232C45.8035 16.1573 45.9715 16.1147 46.1635 16.104C46.3928 16.088 46.6008 16.1307 46.7875 16.232C46.9742 16.3333 47.1048 16.4747 47.1795 16.656C47.2222 16.7573 47.2328 16.8453 47.2115 16.92C47.1955 16.9947 47.1422 17.0613 47.0515 17.12ZM46.1315 16.576C46.0782 16.5867 46.0195 16.6053 45.9555 16.632C45.8968 16.6587 45.8408 16.6933 45.7875 16.736C45.7395 16.7733 45.6942 16.8187 45.6515 16.872C45.6142 16.92 45.5928 16.976 45.5875 17.04C45.6782 17.04 45.7768 17.032 45.8835 17.016C45.9955 17 46.1022 16.9813 46.2035 16.96C46.3102 16.9333 46.4062 16.904 46.4915 16.872C46.5822 16.84 46.6568 16.8053 46.7155 16.768C46.6728 16.6667 46.5928 16.6053 46.4755 16.584C46.3635 16.5573 46.2488 16.5547 46.1315 16.576ZM52.6162 16.608C52.6055 16.5493 52.5949 16.4933 52.5842 16.44C52.5735 16.3867 52.5469 16.352 52.5042 16.336C52.4135 16.3093 52.3175 16.3067 52.2162 16.328C52.1149 16.3493 52.0215 16.384 51.9362 16.432C51.8509 16.4747 51.7789 16.5253 51.7202 16.584C51.6615 16.6373 51.6295 16.6853 51.6242 16.728C51.6082 16.808 51.6295 16.8853 51.6882 16.96C51.7469 17.0347 51.8322 17.1093 51.9442 17.184C52.1309 17.296 52.3255 17.4107 52.5282 17.528C52.7309 17.6453 52.9015 17.7653 53.0402 17.888C53.1789 18.0107 53.2722 18.1467 53.3202 18.296C53.3735 18.44 53.3629 18.6053 53.2882 18.792C53.2295 18.936 53.1202 19.0533 52.9602 19.144C52.8002 19.2347 52.6242 19.3067 52.4322 19.36C52.2402 19.408 52.0482 19.4427 51.8562 19.464C51.6642 19.48 51.5015 19.488 51.3682 19.488C51.3362 19.488 51.2962 19.4773 51.2482 19.456C51.2055 19.4293 51.1629 19.4 51.1202 19.368C51.0829 19.336 51.0482 19.304 51.0162 19.272C50.9895 19.2347 50.9762 19.2027 50.9762 19.176C50.9762 19.08 51.0189 19.0133 51.1042 18.976C51.1895 18.9387 51.2775 18.92 51.3682 18.92C51.4962 18.92 51.6322 18.9147 51.7762 18.904C51.9255 18.888 52.0669 18.8667 52.2002 18.84C52.3335 18.808 52.4535 18.768 52.5602 18.72C52.6669 18.672 52.7415 18.6107 52.7842 18.536C52.8215 18.472 52.7975 18.3973 52.7122 18.312C52.6322 18.2213 52.5229 18.128 52.3842 18.032C52.2509 17.936 52.1042 17.8427 51.9442 17.752C51.7895 17.6613 51.6562 17.5787 51.5442 17.504C51.4322 17.4293 51.3362 17.3413 51.2562 17.24C51.1762 17.1333 51.1255 17.0027 51.1042 16.848C51.0989 16.7093 51.1282 16.576 51.1922 16.448C51.2562 16.32 51.3389 16.208 51.4402 16.112C51.5469 16.0107 51.6669 15.9307 51.8002 15.872C51.9335 15.8133 52.0669 15.784 52.2002 15.784C52.4295 15.7947 52.6189 15.8587 52.7682 15.976C52.9175 16.088 53.0055 16.256 53.0322 16.48C53.0322 16.5547 53.0189 16.616 52.9922 16.664C52.9709 16.712 52.9309 16.7413 52.8722 16.752C52.7975 16.7627 52.7362 16.7547 52.6882 16.728C52.6455 16.696 52.6215 16.656 52.6162 16.608Z" fill="black"/>
<path d="M27.812 10.62C27.732 10.588 27.648 10.528 27.56 10.44C27.48 10.352 27.432 10.276 27.416 10.212C27.376 10.052 27.332 9.856 27.284 9.624C27.236 9.392 27.188 9.144 27.14 8.88C27.092 8.616 27.044 8.348 26.996 8.076C26.956 7.796 26.916 7.532 26.876 7.284C26.836 7.028 26.804 6.8 26.78 6.6C26.756 6.4 26.74 6.24 26.732 6.12C26.732 5.992 26.776 5.92 26.864 5.904C27.072 5.88 27.22 5.956 27.308 6.132C27.348 6.276 27.392 6.44 27.44 6.624C27.488 6.808 27.536 7.008 27.584 7.224C27.776 7.152 27.948 7.06 28.1 6.948C28.252 6.836 28.376 6.716 28.472 6.588C28.576 6.452 28.648 6.316 28.688 6.18C28.736 6.036 28.744 5.896 28.712 5.76C28.672 5.608 28.56 5.496 28.376 5.424C28.192 5.352 27.984 5.316 27.752 5.316C27.432 5.316 27.144 5.376 26.888 5.496C26.64 5.608 26.412 5.748 26.204 5.916C26.108 5.988 26.004 6.012 25.892 5.988C25.772 5.956 25.692 5.88 25.652 5.76C25.652 5.648 25.672 5.552 25.712 5.472C25.752 5.392 25.804 5.32 25.868 5.256C26.116 5 26.408 4.82 26.744 4.716C27.088 4.612 27.448 4.56 27.824 4.56C28.128 4.56 28.42 4.608 28.7 4.704C28.988 4.8 29.232 4.972 29.432 5.22C29.528 5.38 29.576 5.548 29.576 5.724C29.584 5.9 29.56 6.072 29.504 6.24C29.448 6.408 29.368 6.568 29.264 6.72C29.168 6.872 29.068 7.004 28.964 7.116C29.164 7.1 29.368 7.12 29.576 7.176C29.784 7.224 29.968 7.312 30.128 7.44C30.296 7.56 30.432 7.72 30.536 7.92C30.64 8.12 30.692 8.36 30.692 8.64C30.692 8.96 30.62 9.252 30.476 9.516C30.34 9.78 30.156 10.004 29.924 10.188C29.7 10.372 29.44 10.516 29.144 10.62C28.856 10.724 28.556 10.776 28.244 10.776C28.108 10.776 28 10.736 27.92 10.656C27.88 10.656 27.844 10.644 27.812 10.62ZM27.764 8.1C27.828 8.412 27.888 8.736 27.944 9.072C28 9.408 28.06 9.744 28.124 10.08H28.172C28.348 10.08 28.54 10.048 28.748 9.984C28.964 9.92 29.164 9.828 29.348 9.708C29.532 9.58 29.684 9.428 29.804 9.252C29.924 9.068 29.98 8.864 29.972 8.64C29.932 8.44 29.84 8.288 29.696 8.184C29.552 8.08 29.376 8.012 29.168 7.98C28.968 7.948 28.744 7.948 28.496 7.98C28.256 8.004 28.012 8.044 27.764 8.1ZM39.9565 6.108C39.9885 6.148 40.0045 6.2 40.0045 6.264C40.0125 6.32 40.0045 6.368 39.9805 6.408C39.9405 6.496 39.8725 6.528 39.7765 6.504C39.6085 6.464 39.4325 6.448 39.2485 6.456C39.0645 6.464 38.8805 6.536 38.6965 6.672C38.5125 6.808 38.3685 7.008 38.2645 7.272C38.1605 7.528 38.1085 7.796 38.1085 8.076C38.1085 8.348 38.1725 8.584 38.3005 8.784C38.4365 8.976 38.6085 9.116 38.8165 9.204C38.9445 9.26 39.0885 9.292 39.2485 9.3C39.4085 9.308 39.5685 9.304 39.7285 9.288C39.8965 9.264 40.0605 9.232 40.2205 9.192C40.3805 9.144 40.5325 9.092 40.6765 9.036C40.7245 9.02 40.7685 9.024 40.8085 9.048C40.8565 9.072 40.8885 9.104 40.9045 9.144C40.9445 9.248 40.9245 9.352 40.8445 9.456C40.7485 9.56 40.6205 9.652 40.4605 9.732C40.3005 9.812 40.1245 9.876 39.9325 9.924C39.7405 9.972 39.5445 10 39.3445 10.008C39.1445 10.008 38.9565 9.984 38.7805 9.936C38.5325 9.872 38.3205 9.78 38.1445 9.66C37.9765 9.532 37.8365 9.388 37.7245 9.228C37.6125 9.06 37.5285 8.884 37.4725 8.7C37.4165 8.508 37.3845 8.312 37.3765 8.112C37.3605 7.632 37.4525 7.2 37.6525 6.816C37.8605 6.432 38.1485 6.148 38.5165 5.964C38.7885 5.828 39.0605 5.776 39.3325 5.808C39.6125 5.832 39.8205 5.932 39.9565 6.108ZM48.1255 10.512C48.0855 10.648 48.0335 10.772 47.9695 10.884C47.9055 10.988 47.8375 11.048 47.7655 11.064C47.6135 11.104 47.4975 11.08 47.4175 10.992C47.3375 10.904 47.3055 10.792 47.3215 10.656C47.3855 10.176 47.4895 9.672 47.6335 9.144C47.7775 8.608 47.9455 8.076 48.1375 7.548C48.3295 7.012 48.5375 6.496 48.7615 6C48.9935 5.496 49.2295 5.04 49.4695 4.632C49.5095 4.568 49.5535 4.532 49.6015 4.524C49.6575 4.508 49.7055 4.508 49.7455 4.524C49.7855 4.492 49.8335 4.464 49.8895 4.44C49.9455 4.416 50.0015 4.404 50.0575 4.404C50.0815 4.404 50.1055 4.408 50.1295 4.416C50.1615 4.424 50.1935 4.448 50.2255 4.488C50.2575 4.528 50.2935 4.588 50.3335 4.668C50.3815 4.74 50.4375 4.848 50.5015 4.992C50.6135 5.4 50.7415 5.82 50.8855 6.252C51.0375 6.684 51.1935 7.116 51.3535 7.548C51.3775 7.54 51.3975 7.536 51.4135 7.536C51.4375 7.528 51.4615 7.52 51.4855 7.512C51.5735 7.504 51.6735 7.508 51.7855 7.524C51.8975 7.54 51.9735 7.596 52.0135 7.692C52.0615 7.812 52.0535 7.916 51.9895 8.004C51.9255 8.092 51.8095 8.18 51.6415 8.268C51.7455 8.524 51.8495 8.776 51.9535 9.024C52.0575 9.264 52.1655 9.5 52.2775 9.732C52.2855 9.772 52.2975 9.836 52.3135 9.924C52.3295 10.004 52.3375 10.088 52.3375 10.176C52.3455 10.256 52.3415 10.332 52.3255 10.404C52.3095 10.476 52.2775 10.524 52.2295 10.548C52.1735 10.572 52.1135 10.568 52.0495 10.536C51.9935 10.504 51.9375 10.464 51.8815 10.416C51.8255 10.36 51.7735 10.304 51.7255 10.248C51.6855 10.184 51.6535 10.128 51.6295 10.08C51.4935 9.816 51.3615 9.552 51.2335 9.288C51.1135 9.016 50.9975 8.744 50.8855 8.472C50.5495 8.536 50.1815 8.592 49.7815 8.64C49.3895 8.688 49.0015 8.72 48.6175 8.736C48.5295 9.04 48.4415 9.34 48.3535 9.636C48.2735 9.924 48.1975 10.216 48.1255 10.512ZM49.8295 5.472C49.4615 6.296 49.1415 7.12 48.8695 7.944C49.4055 7.928 49.9775 7.86 50.5855 7.74C50.2975 7.012 50.0455 6.256 49.8295 5.472Z" fill="black"/>
</svg>
